External Loads File
version=1
nRows=31
nColumns=13
Range=5.000000e-03-10 seconds
endheader
time 	forceRightX 	forceRightY 	forceRightZ 	pointRightX 	pointRightY 	pointRightZ 	forceLeftX 	forceLeftY 	forceLeftZ 	pointLeftX 	pointLeftY 	pointLeftZ 		
5.005000 33.466458 80.219541 -0.000000 0.230268 0.449181 -0.124455 34.133923 689.435537 -0.000000 0.398554 0.179985 -0.365817
5.010000 32.817517 89.981937 -0.000000 0.239221 0.455950 -0.124499 55.888786 674.912069 -0.000000 0.390890 0.173674 -0.365672
5.015000 31.020913 98.592829 -0.000000 0.248232 0.462298 -0.124546 76.369176 653.908507 -0.000000 0.382871 0.167948 -0.365490
5.020000 27.941008 106.024439 -0.000000 0.257344 0.468376 -0.124703 94.975056 626.384090 -0.000000 0.374552 0.162761 -0.365494
5.025000 23.562571 112.395696 -0.000000 0.266754 0.473545 -0.124858 110.727077 592.672074 -0.000000 0.365954 0.158281 -0.365319
5.030000 18.025959 117.887825 -0.000000 0.276338 0.478036 -0.124929 122.868902 553.612340 -0.000000 0.357123 0.154773 -0.365254
5.035000 11.779595 122.696116 -0.000000 0.286212 0.481924 -0.125037 131.828951 510.479937 -0.000000 0.347944 0.151357 -0.365076
5.040000 5.032570 127.104356 -0.000000 0.296177 0.485264 -0.125191 136.977017 465.571306 -0.000000 0.338439 0.148953 -0.364867
5.045000 -1.906398 131.398027 -0.000000 0.306259 0.487739 -0.125300 138.662374 421.621478 -0.000000 0.328923 0.147354 -0.365326
5.050000 -8.281448 135.892414 -0.000000 0.316487 0.489743 -0.125241 139.042627 380.901408 -0.000000 0.318580 0.146500 -0.364570
5.055000 -13.789384 140.926798 -0.000000 0.326740 0.490996 -0.125408 138.913936 345.627397 -0.000000 0.307470 0.146189 -0.363717
5.060000 -19.556569 146.630432 -0.000000 0.336917 0.491583 -0.125559 136.171013 318.448071 -0.000000 0.298966 0.146684 -0.364108
5.065000 -23.218664 153.507024 -0.000000 0.346521 0.491401 -0.125552 136.686926 297.624562 -0.000000 0.287393 0.147238 -0.364407
5.070000 -25.946190 161.602356 -0.000000 0.356189 0.490524 -0.125731 137.955591 283.813658 -0.000000 0.276815 0.148799 -0.364244
5.075000 -27.407798 171.065371 -0.000000 0.365596 0.488928 -0.125941 140.615901 275.438193 -0.000000 0.266437 0.151032 -0.364135
5.080000 -28.180900 181.807360 -0.000000 0.374488 0.486655 -0.126032 143.477861 271.152947 -0.000000 0.257330 0.153868 -0.363511
5.085000 -26.507847 194.016505 -0.000000 0.383321 0.483744 -0.126110 148.682440 267.546269 -0.000000 0.246359 0.157442 -0.364036
5.090000 -24.537643 207.268262 -0.000000 0.391391 0.480360 -0.126285 152.665334 264.297871 -0.000000 0.236883 0.161632 -0.363884
5.095000 -21.462668 221.582024 -0.000000 0.399254 0.476173 -0.126726 156.302762 258.965249 -0.000000 0.227738 0.166580 -0.363650
5.100000 -17.729400 236.772082 -0.000000 0.406541 0.471281 -0.126981 158.782591 250.466540 -0.000000 0.218959 0.172156 -0.363543
5.105000 -13.290983 252.613085 -0.000000 0.413773 0.465723 -0.126875 159.875604 237.940343 -0.000000 0.210632 0.178370 -0.363527
5.110000 -8.692999 268.742753 -0.000000 0.420416 0.459475 -0.126845 158.759576 221.543014 -0.000000 0.202855 0.185230 -0.363502
5.115000 -4.142386 284.772454 -0.000000 0.426675 0.452535 -0.126779 155.086970 201.761632 -0.000000 0.195664 0.192536 -0.363694
5.120000 -0.133432 300.288811 -0.000000 0.432460 0.445016 -0.126713 148.489384 179.659643 -0.000000 0.189251 0.200239 -0.363821
5.125000 3.211002 314.897114 -0.000000 0.437892 0.437080 -0.126651 139.090888 156.328623 -0.000000 0.183465 0.208363 -0.363935
5.130000 5.914790 328.257914 -0.000000 0.442881 0.428218 -0.126531 127.239633 132.881102 -0.000000 0.178366 0.216732 -0.364115
5.135000 7.743312 340.152871 -0.000000 0.447399 0.419232 -0.126498 113.343150 110.472420 -0.000000 0.173328 0.225399 -0.363069
5.140000 8.399255 350.541211 -0.000000 0.451503 0.409733 -0.126443 98.014619 90.064422 -0.000000 0.169479 0.234373 -0.363076
5.145000 8.106290 359.579897 -0.000000 0.455050 0.399906 -0.126416 82.129134 72.189826 -0.000000 0.166243 0.243612 -0.363101
5.150000 7.006901 367.626917 -0.000000 0.457892 0.389853 -0.126141 66.509622 57.143987 -0.000000 0.163539 0.253175 -0.363087
5.155000 5.746839 375.178020 -0.000000 0.460668 0.379370 -0.126086 51.969057 44.893689 -0.000000 0.161448 0.262987 -0.363124
